<?xml version="1.0" encoding="UTF-8" standalone="no"?>
<!-- Created with Inkscape (http://www.inkscape.org/) -->

<svg
   version="1.1"
   id="svg299"
   xml:space="preserve"
   width="32"
   height="32"
   viewBox="0 0 32 32"
   xmlns="http://www.w3.org/2000/svg"
   xmlns:svg="http://www.w3.org/2000/svg"><defs
     id="defs303"><clipPath
       clipPathUnits="userSpaceOnUse"
       id="clipPath313"><path
         d="M 0,24 H 24 V 0 H 0 Z"
         id="path311" /></clipPath></defs><g
     id="g305"
     transform="matrix(1.3333333,0,0,-1.3333333,0,32)"><g
       id="g307"><g
         id="g309"
         clip-path="url(#clipPath313)"><g
           id="g315"
           transform="translate(17.4916,4.0561)"><path
             d="m 0,0 h -10.983 c -0.55,0 -1,0.45 -1,1 v 8.227 c 0,0.55 0.45,1 1,1 H 0 c 0.55,0 1,-0.45 1,-1 V 1 C 1,0.45 0.55,0 0,0 Z"
             style="fill:none;stroke:#1e3c82;stroke-width:2;stroke-linecap:round;stroke-linejoin:round;stroke-miterlimit:10;stroke-dasharray:none;stroke-opacity:1"
             id="path317" /></g><g
           id="g319"
           transform="translate(8.8592,14.2829)"><path
             d="m 0,0 v 2.52 c 0,1.728 1.413,3.141 3.141,3.141 v 0 c 1.727,0 3.141,-1.413 3.141,-3.141 V 0"
             style="fill:none;stroke:#1e3c82;stroke-width:2;stroke-linecap:round;stroke-linejoin:round;stroke-miterlimit:10;stroke-dasharray:none;stroke-opacity:1"
             id="path321" /></g></g></g><path
       style="fill:#000000;stroke-width:0.037296"
       d="M 8.2939294,27.876191 C 7.7433122,27.795276 7.2288326,27.525682 6.8065268,27.096772 6.3775612,26.661098 6.1526603,26.215972 6.061144,25.621503 6.033514,25.442027 6.024626,23.573679 6.032493,19.599068 c 0.0126,-6.36532 -0.0073,-5.854092 0.2492379,-6.402305 0.318967,-0.681617 0.8200575,-1.137283 1.5488804,-1.408471 l 0.2999244,-0.111599 1.1807251,-0.01359 1.1807252,-0.01359 0.01693,-1.386527 c 0.01496,-1.2251158 0.0259,-1.4268266 0.094,-1.7327019 0.256171,-1.1507469 0.73993,-2.0390808 1.542909,-2.8332662 0.450902,-0.445965 0.838578,-0.7214177 1.429933,-1.016 C 14.40852,4.2661766 15.078774,4.1076535 16,4.1076535 c 0.919793,0 1.589461,0.1581108 2.424242,0.5723716 1.545528,0.7669688 2.586627,2.1153427 2.972842,3.850257 0.06809,0.3058753 0.07903,0.5075861 0.094,1.7327019 l 0.01693,1.386527 1.180725,0.01425 c 1.113897,0.01344 1.194446,0.01907 1.423149,0.0994 0.736156,0.258574 1.272084,0.730664 1.590408,1.400965 0.275024,0.579121 0.25254,0.03358 0.265211,6.434941 0.0079,3.974611 -0.001,5.842959 -0.02865,6.022435 -0.09324,0.605646 -0.319185,1.046484 -0.764724,1.492023 -0.446598,0.446598 -0.898954,0.677743 -1.494954,0.763893 -0.315228,0.04556 -15.0748439,0.04439 -15.3852486,-0.0012 z M 23.328671,19.7669 V 14.265734 H 16 8.6713287 V 19.7669 25.268065 H 16 23.328671 Z M 18.870704,10.44289 C 18.869462,9.0821419 18.844795,8.9001313 18.590316,8.3739002 18.093805,7.3471789 17.124493,6.7332299 16,6.7332299 c -0.803064,0 -1.447367,0.2716009 -2.033758,0.8573142 -0.251212,0.2509224 -0.355505,0.3900765 -0.495495,0.6611225 -0.303791,0.5881958 -0.329449,0.7418875 -0.351493,2.1054384 -0.01051,0.650254 -0.0091,1.2084 0.0032,1.240325 0.01994,0.05195 0.323075,0.05704 2.885827,0.04849 l 2.863551,-0.0096 -0.0011,-1.193474 z"
       id="path434"
       transform="matrix(0.75000002,0,0,-0.75000002,0,24.000001)" /></g></svg>
