<?xml version="1.0" encoding="UTF-8" standalone="no"?>
<!-- Created with Inkscape (http://www.inkscape.org/) -->

<svg
   version="1.1"
   id="svg689"
   xml:space="preserve"
   width="32"
   height="32"
   viewBox="0 0 32 32"
   xmlns="http://www.w3.org/2000/svg"
   xmlns:svg="http://www.w3.org/2000/svg"><defs
     id="defs693"><clipPath
       clipPathUnits="userSpaceOnUse"
       id="clipPath703"><path
         d="M 0,24 H 24 V 0 H 0 Z"
         id="path701" /></clipPath><clipPath
       clipPathUnits="userSpaceOnUse"
       id="clipPath717"><path
         d="M 0,24 H 24 V 0 H 0 Z"
         id="path715" /></clipPath></defs><g
     id="g695"
     transform="matrix(1.3333333,0,0,-1.3333333,0,32)"><g
       id="g697"><g
         id="g699"
         clip-path="url(#clipPath703)"><path
           d="M 7.95,9.096 H 3.291 v 5.807 H 7.95 Z"
           style="fill:none;stroke:#1e3c82;stroke-width:2;stroke-linecap:round;stroke-linejoin:round;stroke-miterlimit:10;stroke-dasharray:none;stroke-opacity:1"
           id="path705" /></g></g><g
       id="g707"
       transform="translate(7.9501,9.0965)"><path
         d="M 0,0 5.485,-4.002 V 9.809 L 0,5.807 Z"
         style="fill:none;stroke:#1e3c82;stroke-width:2;stroke-linecap:round;stroke-linejoin:round;stroke-miterlimit:10;stroke-dasharray:none;stroke-opacity:1"
         id="path709" /></g><g
       id="g711"><g
         id="g713"
         clip-path="url(#clipPath717)"><g
           id="g719"
           transform="translate(16.4006,10.0827)"><path
             d="M 0,0 C 0.663,0.386 1.113,1.095 1.113,1.917 1.113,2.739 0.663,3.449 0,3.835"
             style="fill:none;stroke:#1e3c82;stroke-width:2;stroke-linecap:round;stroke-linejoin:round;stroke-miterlimit:10;stroke-dasharray:none;stroke-opacity:1"
             id="path721" /></g><g
           id="g723"
           transform="translate(18.2079,7.1667)"><path
             d="M 0,0 C 1.489,0.972 2.501,2.761 2.501,4.833 2.501,6.905 1.489,8.694 0,9.667"
             style="fill:none;stroke:#1e3c82;stroke-width:2;stroke-linecap:round;stroke-linejoin:round;stroke-miterlimit:10;stroke-dasharray:none;stroke-opacity:1"
             id="path725" /></g></g></g><path
       style="fill:#000000;stroke-width:0.037296"
       d="m 17.672436,26.49728 c -0.08529,-0.01687 -0.222245,-0.06313 -0.304349,-0.102802 -0.0821,-0.03967 -1.727397,-1.223461 -3.656206,-2.630649 L 10.204957,21.205305 7.1724084,21.194727 4.1398601,21.184149 3.9255325,21.0976 C 3.6425696,20.983335 3.3322898,20.696491 3.1997878,20.426672 L 3.0955711,20.214452 V 16 11.785548 l 0.1102011,-0.21769 C 3.3448212,11.293183 3.6449367,11.015709 3.9255325,10.9024 L 4.1398601,10.81585 7.1726769,10.80508 10.205494,10.79431 13.71215,8.2359822 c 1.928661,-1.4070807 3.572882,-2.5903253 3.653825,-2.6294326 0.348371,-0.1683147 0.780116,-0.1628499 1.128833,0.014288 0.225261,0.1144261 0.496094,0.3905827 0.60956,0.6215417 l 0.103091,0.209842 V 16 25.547786 l -0.10508,0.205128 c -0.194801,0.380276 -0.518058,0.639031 -0.915062,0.732475 -0.233937,0.05506 -0.2901,0.05636 -0.514881,0.01189 z M 16.615385,15.997265 c 0,-5.570082 -0.0079,-6.5836258 -0.0513,-6.5734261 -0.02822,0.00663 -1.085561,0.7669651 -2.349651,1.6896291 l -2.298345,1.67757 v 3.209005 3.209004 l 2.30303,1.684098 c 1.266667,0.926254 2.32401,1.685337 2.349651,1.686852 0.03713,0.0022 0.04662,-1.337739 0.04662,-6.582732 z m -7.3473197,0.0027 V 13.445221 H 7.4778555 5.6876457 v 2.554778 2.554779 h 1.7902098 1.7902098 z"
       id="path801"
       transform="matrix(0.75000002,0,0,-0.75000002,0,24.000001)" /><path
       style="fill:#000000;stroke-width:0.037296"
       d="m 21.47596,19.806453 c -0.225813,-0.07061 -0.396536,-0.186366 -0.586551,-0.397708 -0.216624,-0.240938 -0.320644,-0.517974 -0.320644,-0.853966 0,-0.47396 0.213541,-0.843672 0.666843,-1.154532 0.238643,-0.163654 0.479364,-0.407 0.591926,-0.598382 0.263546,-0.448089 0.258376,-1.161826 -0.01175,-1.622378 -0.10451,-0.178182 -0.42811,-0.497133 -0.620684,-0.611766 -0.209081,-0.124459 -0.463949,-0.430216 -0.549736,-0.659502 -0.104103,-0.278242 -0.102486,-0.651983 0.0041,-0.937123 0.111372,-0.298067 0.452517,-0.639212 0.750583,-0.750584 0.261182,-0.09759 0.619175,-0.106146 0.873755,-0.02088 0.423178,0.14173 1.115103,0.700209 1.499428,1.210247 0.614892,0.816023 0.877995,1.600877 0.874525,2.608772 -0.0028,0.815582 -0.179776,1.471417 -0.574067,2.127457 -0.446595,0.743063 -1.22643,1.459532 -1.799886,1.653631 -0.211606,0.07162 -0.580288,0.07473 -0.797795,0.0067 z"
       id="path840"
       transform="matrix(0.75000002,0,0,-0.75000002,0,24.000001)" /><path
       style="fill:#000000;stroke-width:0.037296"
       d="m 24.069767,23.737239 c -0.419204,-0.06831 -0.777573,-0.339473 -0.972825,-0.736087 -0.108177,-0.219738 -0.12246,-0.284157 -0.121532,-0.548153 8.67e-4,-0.247017 0.01909,-0.338152 0.104583,-0.522929 0.130353,-0.281746 0.241144,-0.396684 0.756503,-0.784824 2.145287,-1.615708 3.006098,-4.621127 2.101691,-7.337805 -0.396069,-1.18972 -1.178216,-2.288256 -2.103605,-2.954539 -0.661378,-0.476195 -0.85637,-0.772689 -0.858838,-1.3059007 -0.0012,-0.2642544 0.01289,-0.3281456 0.120967,-0.5476856 0.234045,-0.475412 0.667817,-0.7489086 1.183009,-0.7458957 0.32412,0.0019 0.498862,0.063805 0.851239,0.3015869 0.915187,0.6175618 1.854734,1.6119091 2.442458,2.5849151 0.635272,1.051726 1.070415,2.265334 1.261182,3.517421 0.09604,0.630364 0.09604,2.05495 0,2.685314 -0.14203,0.932207 -0.44276,1.916577 -0.837469,2.741259 -0.631512,1.319446 -1.703457,2.576486 -2.866171,3.361077 -0.403994,0.272613 -0.693099,0.35223 -1.061192,0.292246 z"
       id="path879"
       transform="matrix(0.75000002,0,0,-0.75000002,0,24.000001)" /></g></svg>
