<?xml version="1.0" encoding="UTF-8" standalone="no"?>
<!-- Created with Inkscape (http://www.inkscape.org/) -->

<svg
   version="1.1"
   id="svg499"
   xml:space="preserve"
   width="32"
   height="32"
   viewBox="0 0 32 32"
   xmlns="http://www.w3.org/2000/svg"
   xmlns:svg="http://www.w3.org/2000/svg"><defs
     id="defs503"><clipPath
       clipPathUnits="userSpaceOnUse"
       id="clipPath517"><path
         d="M 0,24 H 24 V 0 H 0 Z"
         id="path515" /></clipPath></defs><g
     id="g505"
     transform="matrix(1.3333333,0,0,-1.3333333,0,32)"><g
       id="g507"
       transform="translate(12,19.3802)"><path
         d="M 0,0 V -4.417"
         style="fill:none;stroke:#1e3c82;stroke-width:2;stroke-linecap:round;stroke-linejoin:round;stroke-miterlimit:10;stroke-dasharray:none;stroke-opacity:1"
         id="path509" /></g><g
       id="g511"><g
         id="g513"
         clip-path="url(#clipPath517)"><g
           id="g519"
           transform="translate(8.3827,17.1714)"><path
             d="m 0,0 c -1.911,-1.204 -3.189,-3.319 -3.189,-5.745 0,-3.759 3.047,-6.807 6.806,-6.807 3.759,0 6.807,3.048 6.807,6.807 0,2.426 -1.278,4.541 -3.189,5.745"
             style="fill:none;stroke:#1e3c82;stroke-width:2;stroke-linecap:round;stroke-linejoin:round;stroke-miterlimit:10;stroke-dasharray:none;stroke-opacity:1"
             id="path521" /></g></g></g><path
       style="fill:#000000;stroke-width:0.037296"
       d="M 15.272727,27.128983 C 10.969925,26.822732 7.265854,23.848266 6.0421048,19.716552 5.5657316,18.108185 5.4862021,16.366858 5.8150187,14.744418 6.1431653,13.125284 6.8664627,11.5829 7.9109147,10.275058 8.5745841,9.4440247 9.9146197,8.2741129 10.592075,7.9342839 c 0.644907,-0.3235021 1.422602,-0.060577 1.756738,0.5939211 0.07596,0.148797 0.105953,0.2711647 0.118756,0.4845656 0.03118,0.5197018 -0.168013,0.9073748 -0.627265,1.2207954 -1.034322,0.705882 -1.710575,1.371795 -2.3205285,2.285048 -1.3114238,1.963528 -1.6313553,4.466575 -0.8620972,6.744789 1.0586014,3.135125 4.0236227,5.258742 7.3423217,5.258742 2.938589,0 5.617446,-1.65561 6.935796,-4.286517 1.092517,-2.180234 1.091216,-4.775242 -0.0035,-6.949027 -0.60824,-1.207803 -1.487514,-2.176006 -2.772615,-3.053035 -0.459252,-0.3134206 -0.658445,-0.7010936 -0.627265,-1.2207954 0.05563,-0.927287 1.043951,-1.4956107 1.875494,-1.0784867 0.677455,0.339829 2.017491,1.5097408 2.68116,2.3407741 0.850639,1.065153 1.543099,2.399214 1.906855,3.67366 0.447951,1.569427 0.508052,3.337276 0.168701,4.962323 -0.627462,3.004727 -2.659416,5.670453 -5.390748,7.07214 -1.340909,0.688138 -2.608126,1.041144 -4.121212,1.148039 -0.600032,0.04239 -0.756511,0.04214 -1.379954,-0.0022 z"
       id="path597"
       transform="matrix(0.75000002,0,0,-0.75000002,0,24.000001)" /><path
       style="fill:#000000;stroke-width:0.037296"
       d="M 15.680349,13.321943 C 15.292655,13.212154 14.970715,12.933776 14.79292,12.554592 L 14.69464,12.344988 V 9.1188811 5.8927739 l 0.08987,-0.2237762 c 0.120829,-0.3008734 0.4375,-0.6137348 0.737074,-0.7282066 0.76958,-0.2940686 1.608936,0.1766651 1.763964,0.9892788 0.03052,0.1599827 0.03943,1.1064894 0.03125,3.3201742 l -0.01144,3.0963979 -0.121209,0.246169 c -0.281195,0.57109 -0.937754,0.889428 -1.503803,0.729132 z"
       id="path636"
       transform="matrix(0.75000002,0,0,-0.75000002,0,24.000001)" /></g></svg>
