<?xml version="1.0" encoding="UTF-8" standalone="no"?>
<!-- Created with Inkscape (http://www.inkscape.org/) -->

<svg
   version="1.1"
   id="svg149"
   xml:space="preserve"
   width="32"
   height="32"
   viewBox="0 0 32 32"
   xmlns="http://www.w3.org/2000/svg"
   xmlns:svg="http://www.w3.org/2000/svg"><defs
     id="defs153"><clipPath
       clipPathUnits="userSpaceOnUse"
       id="clipPath163"><path
         d="M 0,24 H 24 V 0 H 0 Z"
         id="path161" /></clipPath></defs><g
     id="g155"
     transform="matrix(1.3333333,0,0,-1.3333333,0,32)"><g
       id="g157"><g
         id="g159"
         clip-path="url(#clipPath163)"><g
           id="g165"
           transform="translate(17.4916,4.0561)"><path
             d="m 0,0 h -10.983 c -0.55,0 -1,0.45 -1,1 v 8.227 c 0,0.55 0.45,1 1,1 H 0 c 0.55,0 1,-0.45 1,-1 V 1 C 1,0.45 0.55,0 0,0 Z"
             style="fill:none;stroke:#1e3c82;stroke-width:2;stroke-linecap:round;stroke-linejoin:round;stroke-miterlimit:10;stroke-dasharray:none;stroke-opacity:1"
             id="path167" /></g><g
           id="g169"
           transform="translate(8.8592,14.2829)"><path
             d="m 0,0 v 2.52 c 0,1.728 1.413,3.141 3.141,3.141 v 0 c 1.295,0 2.414,-0.795 2.893,-1.921"
             style="fill:none;stroke:#1e3c82;stroke-width:2;stroke-linecap:round;stroke-linejoin:round;stroke-miterlimit:10;stroke-dasharray:none;stroke-opacity:1"
             id="path171" /></g></g></g><path
       style="fill:#000000;stroke-width:0.037296"
       d="M 8.2939294,27.876191 C 7.7433122,27.795276 7.2288326,27.525682 6.8065268,27.096772 6.3775612,26.661098 6.1526603,26.215972 6.061144,25.621503 6.033514,25.442027 6.024626,23.573679 6.032493,19.599068 c 0.0126,-6.36532 -0.0073,-5.854092 0.2492379,-6.402305 0.318967,-0.681617 0.8200575,-1.137283 1.5488804,-1.408471 l 0.2999244,-0.111599 1.1807251,-0.01359 1.1807252,-0.01359 0.01693,-1.386527 c 0.01496,-1.2251158 0.0259,-1.4268266 0.094,-1.7327019 0.256171,-1.1507469 0.73993,-2.0390808 1.542909,-2.8332662 0.450902,-0.445965 0.838578,-0.7214177 1.429933,-1.016 C 14.40852,4.2661766 15.078774,4.1076535 16,4.1076535 c 1.120563,0 2.110558,0.301377 3.061794,0.9320803 0.407873,0.2704342 1.027128,0.8601944 1.337643,1.2739314 0.271817,0.3621751 0.573359,0.8975493 0.692354,1.2292423 0.174824,0.4873146 0.03611,1.0253774 -0.356971,1.3846282 -0.25845,0.2362088 -0.526407,0.3405296 -0.87468,0.3405296 -0.534277,0 -0.948465,-0.2769653 -1.225857,-0.8197229 C 18.396651,7.9833816 18.303341,7.8520511 17.997753,7.5524476 17.435621,7.0013259 16.781839,6.7332299 16,6.7332299 c -0.805109,0 -1.447237,0.2714314 -2.037786,0.8613851 -0.269396,0.2691236 -0.352933,0.3832502 -0.509616,0.6962311 -0.297263,0.593792 -0.321074,0.7525068 -0.322865,2.1520439 l -0.0015,1.193474 5.370629,0.01865 5.370629,0.01865 0.242425,0.08733 c 0.744714,0.268264 1.272653,0.734039 1.590408,1.403141 0.275023,0.579121 0.252539,0.03358 0.26521,6.434941 0.0079,3.974611 -0.001,5.842959 -0.02865,6.022435 -0.09324,0.605646 -0.319185,1.046484 -0.764725,1.492023 -0.446598,0.446598 -0.898954,0.677743 -1.494954,0.763893 -0.315227,0.04556 -15.0748434,0.04439 -15.3852481,-0.0012 z M 23.328671,19.7669 V 14.265734 H 16 8.6713287 V 19.7669 25.268065 H 16 23.328671 Z"
       id="path247"
       transform="matrix(0.75000002,0,0,-0.75000002,0,24.000001)" /></g></svg>
