<?xml version="1.0" encoding="UTF-8" standalone="no"?>
<!-- Created with Inkscape (http://www.inkscape.org/) -->

<svg
   version="1.1"
   id="svg940"
   xml:space="preserve"
   width="32"
   height="32"
   viewBox="0 0 32 32"
   xmlns="http://www.w3.org/2000/svg"
   xmlns:svg="http://www.w3.org/2000/svg"><defs
     id="defs944"><clipPath
       clipPathUnits="userSpaceOnUse"
       id="clipPath954"><path
         d="M 0,24 H 24 V 0 H 0 Z"
         id="path952" /></clipPath></defs><g
     id="g946"
     transform="matrix(1.3333333,0,0,-1.3333333,0,32)"><g
       id="g948"><g
         id="g950"
         clip-path="url(#clipPath954)"><g
           id="g956"
           transform="translate(19.4951,18.6085)"><path
             d="m 0,0 h -2.709 c 0,0 -1.7,0.042 -2.763,-2.024 l -1.646,-2.97 c 0,0 -0.85,-1.434 -1.86,-1.434 h -2.231 c 0,0 -1.434,0.053 -1.647,-1.222 v -3.081 c 0,0 0.213,-1.753 1.647,-1.753 h 6.181"
             style="fill:none;stroke:#1e3c82;stroke-width:2;stroke-linecap:round;stroke-linejoin:round;stroke-miterlimit:10;stroke-dasharray:none;stroke-opacity:1"
             id="path958" /></g><g
           id="g960"
           transform="translate(19.4951,6.1247)"><path
             d="m 0,0 c 0,-1.389 -1.126,-2.514 -2.514,-2.514 -1.389,0 -2.514,1.125 -2.514,2.514 0,1.389 1.125,2.514 2.514,2.514 C -1.126,2.514 0,1.389 0,0 Z"
             style="fill:none;stroke:#1e3c82;stroke-width:2;stroke-linecap:round;stroke-linejoin:round;stroke-miterlimit:10;stroke-dasharray:none;stroke-opacity:1"
             id="path962" /></g><g
           id="g964"
           transform="translate(4.5049,16.1227)"><path
             d="m 0,0 h 3.195 c 0,0 2.879,0.189 2.879,-3.756"
             style="fill:none;stroke:#1e3c82;stroke-width:2;stroke-linecap:round;stroke-linejoin:round;stroke-miterlimit:10;stroke-dasharray:none;stroke-opacity:1"
             id="path966" /></g></g></g><path
       style="fill:#000000;stroke-width:0.037296"
       d="M 22.157903,28.475636 C 21.079305,28.340238 20.167418,27.912401 19.418352,27.190299 18.899175,26.689811 18.41828,25.949535 18.235354,25.369226 l -0.06633,-0.210411 -3.825773,-0.01145 -3.825772,-0.01145 -0.293665,-0.08483 C 8.9355129,24.678935 8.0416799,23.677144 7.6602133,22.177839 L 7.5524476,21.75428 v -2.296668 c 0,-1.995983 0.00793,-2.328308 0.060605,-2.538326 0.2988514,-1.191638 1.1415296,-1.998634 2.4681374,-2.363626 0.256795,-0.07065 0.410163,-0.08062 1.45261,-0.09442 l 1.165501,-0.01542 -2.61e-4,-0.09937 c -4.29e-4,-0.162537 -0.141634,-0.702769 -0.262755,-1.005253 -0.21079,-0.526425 -0.57434,-0.976531 -0.981438,-1.215107 -0.08929,-0.05233 -0.294763,-0.141963 -0.456613,-0.199193 L 10.703963,11.822844 8.1678322,11.804196 5.6317016,11.785548 5.4638695,11.696669 C 5.0684218,11.487251 4.8426284,11.213542 4.7369429,10.815482 4.582539,10.233926 4.8922204,9.5936209 5.4636187,9.3129893 l 0.205379,-0.1008681 2.6853147,5.292e-4 2.6853146,5.293e-4 0.428904,0.1163127 c 0.525788,0.142586 1.017017,0.3518379 1.44484,0.6154665 0.415321,0.2559251 1.147648,0.9726831 1.423295,1.3930371 0.346839,0.528918 0.668702,1.275363 0.827451,1.91897 l 0.04096,0.166056 0.06442,-0.0854 c 0.03543,-0.04697 0.59882,-1.053164 1.251978,-2.235986 1.259109,-2.280154 1.564522,-2.7813609 2.002427,-3.2861464 0.673386,-0.7762322 1.605856,-1.4056013 2.511067,-1.6948421 0.726,-0.2319777 0.600985,-0.2219086 2.939432,-0.2367512 1.901378,-0.012068 2.180703,-0.00657 2.363407,0.046546 0.684608,0.1990209 1.096618,0.8891712 0.927313,1.5533249 C 27.15451,7.9176776 26.866687,8.2433123 26.4308,8.427694 26.26595,8.497426 26.140168,8.502535 24.13054,8.521126 l -2.125874,0.019666 -0.284973,0.1156417 c -0.611655,0.2482084 -1.207715,0.769552 -1.61607,1.4134963 -0.03902,0.06154 -0.613258,1.090842 -1.276075,2.28734 -1.271653,2.295554 -1.468718,2.615719 -1.947264,3.163656 -0.480682,0.550381 -1.028557,0.982034 -1.57923,1.244227 -0.581839,0.277032 -0.539159,0.272246 -2.657693,0.298075 -1.897364,0.02313 -1.990215,0.02989 -2.248634,0.16352 -0.235903,0.12199 -0.231553,0.08003 -0.231553,2.233162 0,1.688022 0.0082,1.980621 0.06014,2.155698 0.08839,0.297737 0.25029,0.595086 0.40475,0.743366 l 0.135977,0.130536 3.69995,0.0099 3.699949,0.0099 0.06893,-0.196332 c 0.546264,-1.55594 1.872055,-2.714331 3.492079,-3.051152 0.539437,-0.112155 1.284267,-0.112973 1.817572,-0.002 0.958242,0.199404 1.689107,0.594312 2.381704,1.286909 0.581246,0.581247 0.973159,1.232891 1.187585,1.974632 0.145438,0.503097 0.182305,0.778128 0.180721,1.348188 -0.0026,0.935371 -0.253471,1.754599 -0.787694,2.57223 -0.228061,0.349049 -0.885451,1.005538 -1.2522,1.250484 -0.546026,0.364683 -1.250794,0.646766 -1.86172,0.745153 -0.347521,0.05597 -0.944558,0.07451 -1.233007,0.0383 z m 0.917184,-2.651747 c 0.724663,-0.15001 1.37002,-0.775606 1.538814,-1.491696 0.307737,-1.305536 -0.64929,-2.532659 -1.975206,-2.532659 -0.879004,0 -1.654558,0.565353 -1.944187,1.417249 -0.10859,0.319399 -0.0945,0.983104 0.02772,1.305924 0.309454,0.817363 1.030125,1.328807 1.886664,1.338923 0.147708,0.0017 0.357498,-0.01524 0.4662,-0.03774 z"
       id="path1042"
       transform="matrix(0.75000002,0,0,-0.75000002,0,24.000001)" /></g></svg>
